<?xml version="1.0" encoding="UTF-8" standalone="no"?>
<!-- Created with Inkscape (http://www.inkscape.org/) -->

<svg
   width="120mm"
   height="120mm"
   viewBox="-60 -60 120 120"
   sodipodi:docname="logo.svg"
   version="1.1"
   id="svg53"
   inkscape:version="1.1.2 (0a00cf5339, 2022-02-04, custom)"
   xmlns:inkscape="http://www.inkscape.org/namespaces/inkscape"
   xmlns:sodipodi="http://sodipodi.sourceforge.net/DTD/sodipodi-0.dtd"
   xmlns="http://www.w3.org/2000/svg"
   xmlns:svg="http://www.w3.org/2000/svg"
   xmlns:rdf="http://www.w3.org/1999/02/22-rdf-syntax-ns#"
   xmlns:cc="http://creativecommons.org/ns#"
   xmlns:dc="http://purl.org/dc/elements/1.1/">
  <defs
     id="defs55" />
  <sodipodi:namedview
     pagecolor="#ffffff"
     bordercolor="#666666"
     borderopacity="1.0"
     inkscape:pageopacity="0.0"
     inkscape:pageshadow="2"
     inkscape:zoom="1"
     inkscape:cx="227.5"
     inkscape:cy="226"
     inkscape:document-units="mm"
     inkscape:current-layer="Template"
     showgrid="false"
     units="mm"
     showguides="true"
     inkscape:guide-bbox="true"
     inkscape:snap-global="true"
     inkscape:snap-bbox="true"
     inkscape:snap-bbox-midpoints="true"
     inkscape:window-width="1920"
     inkscape:window-height="1007"
     inkscape:window-x="0"
     inkscape:window-y="0"
     inkscape:window-maximized="1"
     inkscape:bbox-paths="true"
     inkscape:bbox-nodes="true"
     inkscape:snap-bbox-edge-midpoints="true"
     inkscape:snap-grids="true"
     id="namedview43"
     inkscape:pagecheckerboard="0">
    <sodipodi:guide
       orientation="1,0"
       position="226.771653543,226.771653543"
       id="guide2827" />
    <sodipodi:guide
       orientation="0,1"
       position="226.771653543,226.771653543"
       id="guide2829" />
    <inkscape:grid
       type="xygrid"
       id="grid3072"
       empspacing="10"
       visible="true"
       enabled="true"
       snapvisiblegridlinesonly="true"
       units="mm"
       dotted="false"
       spacingx="0.1mm"
       spacingy="0.1mm" />
  </sodipodi:namedview>
  <metadata
     id="metadata2822">
    <rdf:RDF>
      <cc:Work
         rdf:about="">
        <dc:format>image/svg+xml</dc:format>
        <dc:type
           rdf:resource="http://purl.org/dc/dcmitype/StillImage" />
      </cc:Work>
    </rdf:RDF>
  </metadata>
  <g
     inkscape:label="Layer 1"
     inkscape:groupmode="layer"
     id="Template"
     style="fill:none;stroke:black;stroke-width:0.05">
    <circle
       cx="0"
       cy="0"
       r="60"
       id="circle46" />
    <circle
       cx="0"
       cy="0"
       r="19"
       id="circle48" />
    <circle
       cx="0"
       cy="0"
       r="7.5"
       id="circle50" />
    <path
       sodipodi:type="star"
       style="fill:#000000"
       id="path131"
       inkscape:flatsided="false"
       sodipodi:sides="3"
       sodipodi:cx="168"
       sodipodi:cy="290"
       sodipodi:r1="154.93547"
       sodipodi:r2="77.467735"
       sodipodi:arg1="-0.81735076"
       sodipodi:arg2="0.2298468"
       inkscape:rounded="0"
       inkscape:randomized="0"
       d="M 274,177 243.43044,307.64935 212.86087,438.29869 115,346.5 17.139129,254.70131 145.56956,215.85065 Z"
       transform="matrix(0.26458333,0,0,0.26458333,-60,-60)"
       inkscape:transform-center-x="5.9347198"
       inkscape:transform-center-y="4.6697219" />
    <path
       sodipodi:type="star"
       style="fill:#000000"
       id="path245"
       inkscape:flatsided="false"
       sodipodi:sides="30"
       sodipodi:cx="343"
       sodipodi:cy="102"
       sodipodi:r1="61.351448"
       sodipodi:r2="53.325329"
       sodipodi:arg1="1.2387369"
       sodipodi:arg2="1.3434566"
       inkscape:rounded="0.09"
       inkscape:randomized="0.641"
       d="m 346.83888,164.5114 c -0.64626,0.87085 3.69519,-38.49145 3.4036,-37.71685 -0.29158,0.7746 -19.14694,31.26515 -19.66098,30.78901 -0.51403,-0.47614 4.13053,-10.92026 2.99084,-10.92812 -1.13968,-0.008 27.52946,40.87414 27.02446,40.20272 -0.50501,-0.67142 -45.40728,-30.16509 -46.19727,-30.26358 -0.78999,-0.0985 44.41673,24.73093 44.0163,23.66663 -0.40042,-1.0643 -9.0889,-12.98472 -9.20464,-13.65643 -0.11574,-0.67172 -27.24844,-4.42135 -28.20103,-4.63516 -0.95259,-0.21381 -28.11189,3.2577 -29.05698,3.24008 -0.9451,-0.0176 -22.21448,-30.34832 -22.1418,-31.37475 0.0727,-1.02643 68.10886,3.58702 67.8132,2.59301 -0.29566,-0.99402 -20.18211,14.40874 -20.74033,13.7818 -0.55822,-0.62695 19.50563,-29.10086 18.91473,-29.52414 -0.5909,-0.42328 -87.51601,-0.29097 -87.39197,-1.02459 0.12404,-0.73363 16.80165,34.0107 16.72125,33.14963 -0.0804,-0.86107 47.10763,-32.90636 46.99709,-33.63376 -0.11054,-0.72739 0.26493,-2.92088 -0.32847,-3.44776 -0.59339,-0.52689 -57.53458,-35.976299 -57.13641,-36.673194 0.39817,-0.696895 32.88278,-1.022981 32.89853,-1.964466 0.0157,-0.941485 -21.91754,27.59423 -21.59286,26.91471 0.32468,-0.67952 -9.48857,5.3443 -9.92191,4.75507 -0.43333,-0.58923 58.30985,-8.08872 58.1405,-9.095862 -0.16935,-1.007139 5.14167,-17.493791 5.40068,-18.121193 0.25901,-0.627404 -27.28071,-8.052549 -27.31955,-9.060223 -0.0388,-1.007673 21.03288,-5.22147 21.75386,-5.405802 0.72099,-0.184332 25.35973,-37.457366 26.00667,-37.869435 0.64694,-0.412069 -30.60446,19.459398 -30.126,19.043475 0.47845,-0.415924 9.31333,38.429196 10.06679,37.77972 0.75346,-0.649475 18.024,-49.884505 18.7107,-50.090442 0.6867,-0.205937 -27.28821,10.241108 -26.37986,9.767685 0.90835,-0.473423 -4.10703,37.711657 -3.40361,37.716851 0.70342,0.0052 35.17384,-58.186883 35.63728,-59.054769 0.46345,-0.867886 -19.64823,39.883197 -18.96714,39.19388 0.6811,-0.689319 51.02601,-40.541704 51.62811,-40.202718 0.60209,0.338986 -33.10392,30.609271 -32.45529,30.26358 0.64862,-0.345691 33.86078,-24.252036 34.63625,-23.666632 0.77548,0.585403 8.53713,13.131014 9.20464,13.656433 0.66751,0.525419 -51.583,4.587725 -50.45152,4.635162 1.13148,0.04744 28.01108,-3.749814 29.05698,-3.240083 1.0459,0.509731 38.21206,2.460209 38.1181,3.108987 -0.094,0.648778 -5.08094,24.602511 -5.13695,25.672755 -0.056,1.070245 20.07142,-13.957693 20.74033,-13.781799 0.66892,0.175895 -19.53587,29.013266 -18.91473,29.524134 0.62115,0.510868 25.20761,2.449989 26.01091,2.820778 0.80331,0.370788 -34.63814,-35.111353 -33.99274,-34.945818 0.6454,0.165535 30.96454,33.239789 31.65546,33.63376 0.69093,0.393972 1.51598,32.836476 1.62367,33.509706 0.10768,0.67324 -22.3364,6.05888 -22.81134,6.61125 -0.47494,0.55237 -33.54963,0.99581 -32.89853,1.96447 0.65109,0.96865 21.02863,-27.45037 21.59286,-26.91471 0.56422,0.53566 10.28971,-5.46516 9.9219,-4.75508 -0.3678,0.71008 -39.96219,10.12895 -40.86899,10.89205 -0.90681,0.7631 57.16585,45.59797 57.27558,46.38696 0.10972,0.78899 -52.09042,-21.96169 -52.62822,-21.00173 -0.53779,0.95996 -5.75701,-23.8001 -5.77755,-22.85996 -0.0206,0.94014 36.5837,65.37597 36.66959,66.1352 0.0859,0.75923 -48.30874,-19.91376 -48.52656,-19.04347 -0.21782,0.87029 -9.58172,-38.78259 -10.06679,-37.77972 -0.48507,1.00286 60.1353,49.29957 59.94185,50.09044 -0.19345,0.79087 -51.62644,-10.63853 -52.27269,-9.76769 z"
       transform="matrix(0.26458333,0,0,0.26458333,-60,-60)"
       inkscape:transform-center-x="1.2671281"
       inkscape:transform-center-y="1.8524106" />
    <path
       sodipodi:type="star"
       style="fill:#ffffff"
       id="path193"
       inkscape:flatsided="true"
       sodipodi:sides="3"
       sodipodi:cx="168"
       sodipodi:cy="278"
       sodipodi:r1="107.93517"
       sodipodi:r2="53.967583"
       sodipodi:arg1="-2.9078495"
       sodipodi:arg2="-1.8606519"
       inkscape:rounded="0"
       inkscape:randomized="0"
       d="M 62.999992,253 242.15064,199.56733 198.84937,381.43267 Z"
       transform="matrix(0.26458333,0,0,0.26458333,-59.391994,-57.837989)"
       inkscape:transform-center-x="4.0811144"
       inkscape:transform-center-y="3.3072907" />
    <path
       sodipodi:type="star"
       style="fill:#ffcc00"
       id="path249"
       inkscape:flatsided="true"
       sodipodi:sides="30"
       sodipodi:cx="337"
       sodipodi:cy="108"
       sodipodi:r1="45.254833"
       sodipodi:r2="45.006924"
       sodipodi:arg1="0.78539816"
       sodipodi:arg2="0.89011792"
       inkscape:rounded="0.7"
       inkscape:randomized="0.09"
       d="m 371.49198,136.40413 c -4.04365,5.18935 -3.85063,2.1061 -9.81005,5.57952 -5.95942,3.47341 0.14086,1.67325 -5.77889,4.22256 -5.91975,2.54931 -2.61259,2.43071 -9.407,3.59938 -6.7944,1.16866 -2.7174,3.68737 -9.4851,2.99852 -6.76769,-0.68885 -6.70993,3.31514 -13.53028,2.19312 -6.82035,-1.12202 2.05102,-4.65762 -3.87534,-7.65495 -5.92636,-2.99732 -4.49478,-4.45568 -9.66531,-8.17469 -5.17053,-3.719 -1.83785,2.38773 -6.56592,-2.15406 -4.72807,-4.5418 -1.33961,-2.90215 -4.43073,-8.56298 -3.09113,-5.66083 -5.02423,1.01429 -7.4627,-5.45332 -2.43848,-6.46761 -0.95473,-2.1596 -1.77189,-8.57268 -0.81716,-6.41307 3.33459,-8.85473 4.12531,-15.510699 0.79072,-6.655974 -2.79967,-1.288729 -0.7004,-7.742792 2.09927,-6.454063 2.87252,-1.302607 6.709,-6.343052 3.83648,-5.040445 0.74868,-2.942722 4.85222,-8.203103 4.10355,-5.260382 5.54658,-0.361498 11.33054,-3.474516 5.78397,-3.113019 -2.45431,-7.487091 4.12426,-9.441009 6.57857,-1.953919 4.96723,-1.504216 11.19577,-3.413352 6.22854,-1.909136 2.93687,4.275077 9.4851,5.147347 6.54824,0.872269 -1.16234,1.484144 5.25027,2.8393 6.41262,1.355156 6.40638,-4.371008 12.02121,-0.490924 5.61483,3.880084 4.42455,-0.411665 9.79945,3.142271 5.37491,3.553937 2.10192,5.100784 6.56592,10.299937 4.46401,5.199153 0.69814,0.132299 4.2966,5.449528 3.59846,5.31723 -2.71588,7.368122 -0.68318,13.599184 2.03271,6.23107 1.07319,-2.752644 1.90603,3.54026 0.83285,6.2929 4.18142,5.6402 3.88642,12.39725 -0.29499,6.75706 -5.5772,4.46549 -7.31132,10.85624 -1.73413,6.39076 5.16269,-2.04465 1.30272,3.22961 -3.85996,5.27426 -2.32906,0.90876 -6.37271,6.0981 z"
       transform="matrix(0.26458333,0,0,0.26458333,-59.612706,-60.648946)"
       inkscape:transform-center-x="0.066883789"
       inkscape:transform-center-y="-0.1152105" />
  </g>
</svg>
